ffmpeg version 7.1.1-essentials_build-www.gyan.dev Copyright (c) 2000-2025 the FFmpeg developers
  built with gcc 14.2.0 (Rev1, Built by MSYS2 project)
  configuration: --enable-gpl --enable-version3 --enable-static --disable-w32threads --disable-autodetect --enable-fontconfig --enable-iconv --enable-gnutls --enable-libxml2 --enable-gmp --enable-bzlib --enable-lzma --enable-zlib --enable-libsrt --enable-libssh --enable-libzmq --enable-avisynth --enable-sdl2 --enable-libwebp --enable-libx264 --enable-libx265 --enable-libxvid --enable-libaom --enable-libopenjpeg --enable-libvpx --enable-mediafoundation --enable-libass --enable-libfreetype --enable-libfribidi --enable-libharfbuzz --enable-libvidstab --enable-libvmaf --enable-libzimg --enable-amf --enable-cuda-llvm --enable-cuvid --enable-dxva2 --enable-d3d11va --enable-d3d12va --enable-ffnvcodec --enable-libvpl --enable-nvdec --enable-nvenc --enable-vaapi --enable-libgme --enable-libopenmpt --enable-libopencore-amrwb --enable-libmp3lame --enable-libtheora --enable-libvo-amrwbenc --enable-libgsm --enable-libopencore-amrnb --enable-libopus --enable-libspeex --enable-libvorbis --enable-librubberband
  libavutil      59. 39.100 / 59. 39.100
  libavcodec     61. 19.101 / 61. 19.101
  libavformat    61.  7.100 / 61.  7.100
  libavdevice    61.  3.100 / 61.  3.100
  libavfilter    10.  4.100 / 10.  4.100
  libswscale      8.  3.100 /  8.  3.100
  libswresample   5.  3.100 /  5.  3.100
  libpostproc    58.  3.100 / 58.  3.100
[mjpeg @ 0000024ba5739700] EOI missing, emulating
Input #0, dshow, from 'video=AT025':
  Duration: N/A, start: 424505.870402, bitrate: N/A
  Stream #0:0: Video: mjpeg (Baseline) (MJPG / 0x47504A4D), yuvj422p(pc, bt470bg/bt709/unknown), 1280x720, 30 fps, 30 tbr, 10000k tbn
Stream mapping:
  Stream #0:0 -> #0:0 (mjpeg (native) -> h264 (libx264))
Press [q] to stop, [?] for help
[swscaler @ 0000024ba71f0fc0] deprecated pixel format used, make sure you did set range correctly
[libx264 @ 0000024ba573dec0] using cpu capabilities: MMX2 SSE2Fast SSSE3 SSE4.2 AVX
[libx264 @ 0000024ba573dec0] profile Constrained Baseline, level 3.1, 4:2:0, 8-bit
[libx264 @ 0000024ba573dec0] 264 - core 164 r3204 373697b - H.264/MPEG-4 AVC codec - Copyleft 2003-2025 - http://www.videolan.org/x264.html - options: cabac=0 ref=1 deblock=0:0:0 analyse=0:0 me=dia subme=0 psy=1 psy_rd=1.00:0.00 mixed_ref=0 me_range=16 chroma_me=1 trellis=0 8x8dct=0 cqm=0 deadzone=21,11 fast_pskip=1 chroma_qp_offset=0 threads=6 lookahead_threads=1 sliced_threads=0 nr=0 decimate=1 interlaced=0 bluray_compat=0 constrained_intra=0 bframes=0 weightp=0 keyint=250 keyint_min=25 scenecut=0 intra_refresh=0 rc=crf mbtree=0 crf=23.0 qcomp=0.60 qpmin=0 qpmax=69 qpstep=4 ip_ratio=1.40 aq=0
Output #0, mp4, to 'videos\recording_2025-08-23_18-06-00.mp4':
  Metadata:
    encoder         : Lavf61.7.100
  Stream #0:0: Video: h264 (avc1 / 0x31637661), yuv420p(pc, bt470bg/bt709/unknown, progressive), 1280x720, q=2-31, 30 fps, 10000k tbn
      Metadata:
        encoder         : Lavc61.19.101 libx264
      Side data:
        cpb: bitrate max/min/avg: 0/0/0 buffer size: 0 vbv_delay: N/A
frame=    8 fps=0.0 q=25.0 size=       0KiB time=00:00:00.26 bitrate=   1.4kbits/s speed=0.523x    frame=   22 fps= 21 q=24.0 size=     256KiB time=00:00:00.76 bitrate=2735.9kbits/s speed=0.748x    frame=   36 fps= 23 q=25.0 size=     768KiB time=00:00:01.33 bitrate=4718.9kbits/s speed=0.866x    frame=   50 fps= 24 q=25.0 size=    1024KiB time=00:00:01.79 bitrate=4660.6kbits/s speed=0.876x    frame=   64 fps= 25 q=25.0 size=    1280KiB time=00:00:02.26 bitrate=4626.2kbits/s speed=0.882x    

[q] command received. Exiting.

[out#0/mp4 @ 0000024ba5731f00] video:1905KiB audio:0KiB subtitle:0KiB other streams:0KiB global headers:0KiB muxing overhead: 0.066095%
frame=   85 fps= 27 q=-1.0 Lsize=    1906KiB time=00:00:03.13 bitrate=4982.6kbits/s speed=1.01x    
[libx264 @ 0000024ba573dec0] frame I:1     Avg QP:20.00  size:  4744
[libx264 @ 0000024ba573dec0] frame P:84    Avg QP:24.74  size: 23153
[libx264 @ 0000024ba573dec0] mb I  I16..4: 100.0%  0.0%  0.0%
[libx264 @ 0000024ba573dec0] mb P  I16..4: 45.4%  0.0%  0.0%  P16..4: 42.7%  0.0%  0.0%  0.0%  0.0%    skip:11.9%
[libx264 @ 0000024ba573dec0] coded y,uvDC,uvAC intra: 16.0% 70.2% 29.7% inter: 30.7% 50.2% 3.1%
[libx264 @ 0000024ba573dec0] i16 v,h,dc,p: 31% 20% 25% 24%
[libx264 @ 0000024ba573dec0] i8c dc,h,v,p: 45% 26% 20%  8%
[libx264 @ 0000024ba573dec0] kb/s:4977.75
